<svg id="svg" version="1.1" xmlns="http://www.w3.org/2000/svg" xmlns:xlink="http://www.w3.org/1999/xlink" width="1920" height="1080" viewBox="0, 0, 400,225">
    <g id="svgg">
        <path id="path0" d="M0.000 112.500 L 0.000 225.000 200.000 225.000 L 400.000 225.000 400.000 112.500 L 400.000 0.000 200.000 0.000 L 0.000 0.000 0.000 112.500 M235.468 103.515 C 243.208 106.232,244.307 116.652,237.279 120.674 C 233.272 122.967,227.251 122.297,224.269 119.227 C 219.164 113.971,221.560 105.077,228.542 103.368 C 229.057 103.242,229.667 103.093,229.896 103.038 C 230.842 102.809,234.302 103.106,235.468 103.515 M112.500 112.500 L 112.500 121.667 109.896 121.667 L 107.292 121.667 107.292 112.500 L 107.292 103.333 109.896 103.333 L 112.500 103.333 112.500 112.500 M125.758 107.344 C 127.602 109.549,130.156 112.667,131.433 114.271 C 132.711 115.875,134.177 117.715,134.691 118.361 C 135.523 119.406,135.625 119.650,135.625 120.600 L 135.625 121.667 133.466 121.667 L 131.308 121.667 127.893 117.552 C 126.016 115.290,123.605 112.376,122.536 111.077 C 120.396 108.477,120.219 108.264,118.979 106.810 C 118.188 105.881,118.125 105.717,118.125 104.571 L 118.125 103.333 120.265 103.333 L 122.405 103.333 125.758 107.344 M135.623 108.073 L 135.620 112.813 135.050 112.086 C 134.736 111.686,133.607 110.304,132.541 109.016 L 130.603 106.673 130.560 105.003 L 130.516 103.333 133.071 103.333 L 135.625 103.333 135.623 108.073 M155.208 105.313 L 155.208 107.292 148.229 107.292 L 141.250 107.292 141.250 105.313 L 141.250 103.333 148.229 103.333 L 155.208 103.333 155.208 105.313 M171.250 103.643 C 176.979 105.165,178.583 112.686,173.770 115.456 L 172.977 115.912 174.505 118.112 C 175.346 119.322,176.220 120.617,176.447 120.990 L 176.861 121.667 174.090 121.667 L 171.319 121.667 169.683 119.271 L 168.047 116.875 166.627 116.875 L 165.208 116.875 165.208 119.271 L 165.208 121.667 162.604 121.667 L 160.000 121.667 160.000 117.188 L 160.000 112.708 164.590 112.708 C 170.483 112.708,171.252 112.403,171.249 110.062 C 171.247 107.752,170.414 107.417,164.636 107.405 L 160.001 107.396 160.000 105.365 L 160.000 103.333 165.052 103.336 C 168.816 103.338,170.396 103.416,171.250 103.643 M192.905 104.535 C 193.184 105.192,193.735 106.432,194.127 107.292 C 194.520 108.151,195.262 109.839,195.776 111.042 C 196.290 112.245,197.112 114.120,197.603 115.208 C 199.398 119.189,200.417 121.495,200.417 121.580 C 200.417 121.627,199.218 121.667,197.752 121.667 L 195.088 121.667 194.328 119.844 C 193.910 118.841,192.802 116.099,191.866 113.750 C 190.929 111.401,190.069 109.245,189.955 108.958 L 189.746 108.438 189.524 108.958 C 189.401 109.245,189.141 109.854,188.946 110.313 C 188.750 110.771,187.962 112.740,187.194 114.688 C 186.426 116.635,185.621 118.622,185.404 119.101 C 185.188 119.581,184.891 120.354,184.746 120.820 L 184.482 121.667 181.824 121.667 C 180.363 121.667,179.167 121.623,179.167 121.569 C 179.167 121.478,181.958 115.124,183.038 112.759 C 183.312 112.157,183.782 111.079,184.080 110.364 C 184.379 109.648,184.907 108.453,185.253 107.708 C 185.600 106.964,186.020 106.026,186.187 105.625 C 186.354 105.224,186.642 104.544,186.827 104.115 L 187.164 103.333 189.780 103.337 L 192.396 103.340 192.905 104.535 M217.708 105.313 L 217.708 107.292 210.729 107.292 L 203.750 107.292 203.750 105.313 L 203.750 103.333 210.729 103.333 L 217.708 103.333 217.708 105.313 M257.982 103.663 C 263.594 105.117,265.138 112.315,260.496 115.390 L 259.588 115.991 259.968 116.485 C 260.177 116.757,261.073 118.034,261.960 119.323 L 263.573 121.667 260.772 121.667 L 257.970 121.667 256.341 119.271 L 254.711 116.875 253.293 116.875 L 251.875 116.875 251.875 119.271 L 251.875 121.667 249.271 121.667 L 246.667 121.667 246.667 117.188 L 246.667 112.708 251.406 112.707 C 257.209 112.705,257.890 112.433,257.909 110.104 C 257.927 107.752,257.109 107.417,251.303 107.405 L 246.668 107.396 246.667 105.365 L 246.667 103.333 251.689 103.333 C 255.592 103.333,256.994 103.407,257.982 103.663 M273.034 104.583 C 273.394 105.214,274.078 106.339,274.553 107.083 C 275.029 107.828,275.512 108.625,275.629 108.854 C 275.745 109.083,276.002 109.524,276.201 109.833 C 276.400 110.142,277.009 111.150,277.555 112.072 C 278.772 114.131,278.599 114.161,280.104 111.621 C 280.792 110.461,281.892 108.614,282.550 107.517 C 283.207 106.419,283.810 105.380,283.889 105.208 C 283.968 105.036,284.251 104.544,284.519 104.115 L 285.005 103.333 287.077 103.333 L 289.148 103.333 288.404 104.740 C 287.994 105.513,287.330 106.755,286.928 107.500 C 286.526 108.245,285.825 109.550,285.371 110.401 C 284.681 111.693,282.171 115.977,281.456 117.083 C 281.345 117.255,281.053 117.771,280.807 118.229 C 279.984 119.761,279.799 119.898,278.582 119.874 C 277.363 119.851,277.217 119.714,275.916 117.372 C 275.605 116.812,274.960 115.745,274.482 115.000 C 274.004 114.255,273.335 113.177,272.997 112.604 C 272.371 111.547,272.269 111.361,270.992 108.958 C 269.179 105.546,268.480 104.266,268.181 103.810 L 267.859 103.319 270.119 103.378 L 272.379 103.438 273.034 104.583 M229.699 107.718 C 227.786 108.673,226.875 110.233,226.875 112.556 C 226.875 119.404,236.447 119.538,236.647 112.693 C 236.762 108.725,233.033 106.055,229.699 107.718 M289.375 116.042 L 289.375 121.667 286.979 121.667 L 284.583 121.667 284.583 120.211 C 284.583 118.959,284.670 118.615,285.208 117.741 C 285.552 117.182,285.833 116.663,285.833 116.587 C 285.833 116.512,286.052 116.100,286.319 115.673 C 286.586 115.246,287.166 114.240,287.608 113.438 C 288.050 112.635,288.605 111.628,288.841 111.200 C 289.077 110.771,289.294 110.419,289.323 110.418 C 289.352 110.417,289.375 112.948,289.375 116.042 M269.005 112.500 C 269.895 114.089,271.352 116.711,272.047 117.973 C 272.582 118.947,272.708 119.414,272.708 120.421 L 272.708 121.667 270.313 121.667 L 267.917 121.667 267.918 116.094 C 267.919 111.303,267.959 110.594,268.200 111.042 C 268.354 111.328,268.717 111.984,269.005 112.500 M155.164 113.430 L 155.223 115.417 150.841 115.417 L 146.458 115.417 146.458 118.542 L 146.458 121.667 143.854 121.667 L 141.250 121.667 141.250 116.510 L 141.250 111.354 148.177 111.399 L 155.104 111.444 155.164 113.430 M217.708 113.385 L 217.708 115.417 213.333 115.417 L 208.958 115.417 208.958 118.542 L 208.958 121.667 206.354 121.667 L 203.750 121.667 203.750 116.597 C 203.750 113.809,203.789 111.489,203.837 111.441 C 203.885 111.393,207.025 111.354,210.816 111.354 L 217.708 111.354 217.708 113.385 M120.706 115.471 L 123.125 118.547 123.125 120.107 L 123.125 121.667 120.625 121.667 L 118.125 121.667 118.125 116.944 C 118.125 114.347,118.161 112.261,118.206 112.309 C 118.250 112.357,119.375 113.780,120.706 115.471 " stroke="none" fill="#2b046b" fill-rule="evenodd"></path>
        <path id="path1" d="M229.896 103.038 C 229.667 103.093,229.057 103.242,228.542 103.368 C 221.560 105.077,219.164 113.971,224.269 119.227 C 227.251 122.297,233.272 122.967,237.279 120.674 C 244.307 116.652,243.208 106.232,235.468 103.515 C 234.302 103.106,230.842 102.809,229.896 103.038 M107.292 112.500 L 107.292 121.667 109.896 121.667 L 112.500 121.667 112.500 112.500 L 112.500 103.333 109.896 103.333 L 107.292 103.333 107.292 112.500 M118.125 104.571 C 118.125 105.717,118.188 105.881,118.979 106.810 C 120.219 108.264,120.396 108.477,122.536 111.077 C 123.605 112.376,126.016 115.290,127.893 117.552 L 131.308 121.667 133.466 121.667 L 135.625 121.667 135.625 120.600 C 135.625 119.650,135.523 119.406,134.691 118.361 C 134.177 117.715,132.711 115.875,131.433 114.271 C 130.156 112.667,127.602 109.549,125.758 107.344 L 122.405 103.333 120.265 103.333 L 118.125 103.333 118.125 104.571 M130.560 105.003 L 130.603 106.673 132.541 109.016 C 133.607 110.304,134.736 111.686,135.050 112.086 L 135.620 112.813 135.623 108.073 L 135.625 103.333 133.071 103.333 L 130.516 103.333 130.560 105.003 M141.250 105.313 L 141.250 107.292 148.229 107.292 L 155.208 107.292 155.208 105.313 L 155.208 103.333 148.229 103.333 L 141.250 103.333 141.250 105.313 M160.000 105.365 L 160.001 107.396 164.636 107.405 C 170.414 107.417,171.247 107.752,171.249 110.062 C 171.252 112.403,170.483 112.708,164.590 112.708 L 160.000 112.708 160.000 117.188 L 160.000 121.667 162.604 121.667 L 165.208 121.667 165.208 119.271 L 165.208 116.875 166.627 116.875 L 168.047 116.875 169.683 119.271 L 171.319 121.667 174.090 121.667 L 176.861 121.667 176.447 120.990 C 176.220 120.617,175.346 119.322,174.505 118.112 L 172.977 115.912 173.770 115.456 C 176.852 113.682,177.460 108.624,174.940 105.721 C 173.227 103.748,171.532 103.339,165.052 103.336 L 160.000 103.333 160.000 105.365 M186.827 104.115 C 186.642 104.544,186.354 105.224,186.187 105.625 C 186.020 106.026,185.600 106.964,185.253 107.708 C 184.907 108.453,184.379 109.648,184.080 110.364 C 183.782 111.079,183.312 112.157,183.038 112.759 C 181.958 115.124,179.167 121.478,179.167 121.569 C 179.167 121.623,180.363 121.667,181.824 121.667 L 184.482 121.667 184.746 120.820 C 184.891 120.354,185.188 119.581,185.404 119.101 C 185.621 118.622,186.426 116.635,187.194 114.688 C 187.962 112.740,188.750 110.771,188.946 110.313 C 189.141 109.854,189.401 109.245,189.524 108.958 L 189.746 108.438 189.955 108.958 C 190.069 109.245,190.929 111.401,191.866 113.750 C 192.802 116.099,193.910 118.841,194.328 119.844 L 195.088 121.667 197.752 121.667 C 199.218 121.667,200.417 121.627,200.417 121.580 C 200.417 121.495,199.398 119.189,197.603 115.208 C 197.112 114.120,196.290 112.245,195.776 111.042 C 195.262 109.839,194.520 108.151,194.127 107.292 C 193.735 106.432,193.184 105.192,192.905 104.535 L 192.396 103.340 189.780 103.337 L 187.164 103.333 186.827 104.115 M203.750 105.313 L 203.750 107.292 210.729 107.292 L 217.708 107.292 217.708 105.313 L 217.708 103.333 210.729 103.333 L 203.750 103.333 203.750 105.313 M246.667 105.365 L 246.668 107.396 251.303 107.405 C 257.109 107.417,257.927 107.752,257.909 110.104 C 257.890 112.433,257.209 112.705,251.406 112.707 L 246.667 112.708 246.667 117.188 L 246.667 121.667 249.271 121.667 L 251.875 121.667 251.875 119.271 L 251.875 116.875 253.293 116.875 L 254.711 116.875 256.341 119.271 L 257.970 121.667 260.772 121.667 L 263.573 121.667 261.960 119.323 C 261.073 118.034,260.177 116.757,259.968 116.485 L 259.588 115.991 260.496 115.390 C 263.691 113.273,264.083 108.142,261.258 105.400 C 259.420 103.616,258.110 103.333,251.689 103.333 L 246.667 103.333 246.667 105.365 M268.181 103.810 C 268.480 104.266,269.179 105.546,270.992 108.958 C 272.269 111.361,272.371 111.547,272.997 112.604 C 273.335 113.177,274.004 114.255,274.482 115.000 C 274.960 115.745,275.605 116.812,275.916 117.372 C 277.217 119.714,277.363 119.851,278.582 119.874 C 279.799 119.898,279.984 119.761,280.807 118.229 C 281.053 117.771,281.345 117.255,281.456 117.083 C 282.171 115.977,284.681 111.693,285.371 110.401 C 285.825 109.550,286.526 108.245,286.928 107.500 C 287.330 106.755,287.994 105.513,288.404 104.740 L 289.148 103.333 287.077 103.333 L 285.005 103.333 284.519 104.115 C 284.251 104.544,283.968 105.036,283.889 105.208 C 283.810 105.380,283.207 106.419,282.550 107.517 C 281.892 108.614,280.792 110.461,280.104 111.621 C 278.599 114.161,278.772 114.131,277.555 112.072 C 277.009 111.150,276.400 110.142,276.201 109.833 C 276.002 109.524,275.745 109.083,275.629 108.854 C 275.512 108.625,275.029 107.828,274.553 107.083 C 274.078 106.339,273.394 105.214,273.034 104.583 L 272.379 103.438 270.119 103.378 L 267.859 103.319 268.181 103.810 M233.613 107.604 C 235.600 108.434,236.716 110.306,236.647 112.693 C 236.447 119.538,226.875 119.404,226.875 112.556 C 226.875 108.739,230.302 106.220,233.613 107.604 M288.841 111.200 C 288.605 111.628,288.050 112.635,287.608 113.438 C 287.166 114.240,286.586 115.246,286.319 115.673 C 286.052 116.100,285.833 116.512,285.833 116.587 C 285.833 116.663,285.552 117.182,285.208 117.741 C 284.670 118.615,284.583 118.959,284.583 120.211 L 284.583 121.667 286.979 121.667 L 289.375 121.667 289.375 116.042 C 289.375 112.948,289.352 110.417,289.323 110.418 C 289.294 110.419,289.077 110.771,288.841 111.200 M267.918 116.094 L 267.917 121.667 270.313 121.667 L 272.708 121.667 272.708 120.421 C 272.708 119.414,272.582 118.947,272.047 117.973 C 271.352 116.711,269.895 114.089,269.005 112.500 C 268.717 111.984,268.354 111.328,268.200 111.042 C 267.959 110.594,267.919 111.303,267.918 116.094 M141.250 116.510 L 141.250 121.667 143.854 121.667 L 146.458 121.667 146.458 118.542 L 146.458 115.417 150.841 115.417 L 155.223 115.417 155.164 113.430 L 155.104 111.444 148.177 111.399 L 141.250 111.354 141.250 116.510 M203.837 111.441 C 203.789 111.489,203.750 113.809,203.750 116.597 L 203.750 121.667 206.354 121.667 L 208.958 121.667 208.958 118.542 L 208.958 115.417 213.333 115.417 L 217.708 115.417 217.708 113.385 L 217.708 111.354 210.816 111.354 C 207.025 111.354,203.885 111.393,203.837 111.441 M118.125 116.944 L 118.125 121.667 120.625 121.667 L 123.125 121.667 123.125 120.107 L 123.125 118.547 120.706 115.471 C 119.375 113.780,118.250 112.357,118.206 112.309 C 118.161 112.261,118.125 114.347,118.125 116.944 " stroke="none" fill="#f9f8fa" fill-rule="evenodd"></path>
    </g>
</svg>